<?xml version="1.0" encoding="utf-8" standalone="no"?>
<!DOCTYPE svg PUBLIC "-//W3C//DTD SVG 1.1//EN"
  "http://www.w3.org/Graphics/SVG/1.1/DTD/svg11.dtd">
<svg xmlns:xlink="http://www.w3.org/1999/xlink" width="864pt" height="576pt" viewBox="0 0 864 576" xmlns="http://www.w3.org/2000/svg" version="1.1">
 <metadata>
  <rdf:RDF xmlns:dc="http://purl.org/dc/elements/1.1/" xmlns:cc="http://creativecommons.org/ns#" xmlns:rdf="http://www.w3.org/1999/02/22-rdf-syntax-ns#">
   <cc:Work>
    <dc:type rdf:resource="http://purl.org/dc/dcmitype/StillImage"/>
    <dc:date>2022-11-25T11:22:43.584673</dc:date>
    <dc:format>image/svg+xml</dc:format>
    <dc:creator>
     <cc:Agent>
      <dc:title>Matplotlib v3.5.1, https://matplotlib.org/</dc:title>
     </cc:Agent>
    </dc:creator>
   </cc:Work>
  </rdf:RDF>
 </metadata>
 <defs>
  <style type="text/css">*{stroke-linejoin: round; stroke-linecap: butt}</style>
 </defs>
 <g id="figure_1">
  <g id="patch_1">
   <path d="M 0 576 
L 864 576 
L 864 0 
L 0 0 
L 0 576 
z
" style="fill: none"/>
  </g>
  <g id="axes_1">
   <g id="patch_2">
    <path d="M 108 504 
L 777.6 504 
L 777.6 69.12 
L 108 69.12 
z
" style="fill: #eaeaf2"/>
   </g>
   <g id="matplotlib.axis_1">
    <g id="xtick_1">
     <g id="line2d_1">
      <path d="M 138.436364 504 
L 138.436364 69.12 
" clip-path="url(#p144581b31e)" style="fill: none; stroke: #ffffff; stroke-linecap: round"/>
     </g>
     <g id="text_1">
      <!-- 0 -->
      <g style="fill: #262626" transform="translate(135.377848 521.373594)scale(0.11 -0.11)">
       <defs>
        <path id="ArialMT-30" d="M 266 2259 
Q 266 3072 433 3567 
Q 600 4063 929 4331 
Q 1259 4600 1759 4600 
Q 2128 4600 2406 4451 
Q 2684 4303 2865 4023 
Q 3047 3744 3150 3342 
Q 3253 2941 3253 2259 
Q 3253 1453 3087 958 
Q 2922 463 2592 192 
Q 2263 -78 1759 -78 
Q 1097 -78 719 397 
Q 266 969 266 2259 
z
M 844 2259 
Q 844 1131 1108 757 
Q 1372 384 1759 384 
Q 2147 384 2411 759 
Q 2675 1134 2675 2259 
Q 2675 3391 2411 3762 
Q 2147 4134 1753 4134 
Q 1366 4134 1134 3806 
Q 844 3388 844 2259 
z
" transform="scale(0.015625)"/>
       </defs>
       <use xlink:href="#ArialMT-30"/>
      </g>
     </g>
    </g>
    <g id="xtick_2">
     <g id="line2d_2">
      <path d="M 235.318318 504 
L 235.318318 69.12 
" clip-path="url(#p144581b31e)" style="fill: none; stroke: #ffffff; stroke-linecap: round"/>
     </g>
     <g id="text_2">
      <!-- 1 -->
      <g style="fill: #262626" transform="translate(232.259802 521.373594)scale(0.11 -0.11)">
       <defs>
        <path id="ArialMT-31" d="M 2384 0 
L 1822 0 
L 1822 3584 
Q 1619 3391 1289 3197 
Q 959 3003 697 2906 
L 697 3450 
Q 1169 3672 1522 3987 
Q 1875 4303 2022 4600 
L 2384 4600 
L 2384 0 
z
" transform="scale(0.015625)"/>
       </defs>
       <use xlink:href="#ArialMT-31"/>
      </g>
     </g>
    </g>
    <g id="xtick_3">
     <g id="line2d_3">
      <path d="M 332.200273 504 
L 332.200273 69.12 
" clip-path="url(#p144581b31e)" style="fill: none; stroke: #ffffff; stroke-linecap: round"/>
     </g>
     <g id="text_3">
      <!-- 2 -->
      <g style="fill: #262626" transform="translate(329.141757 521.373594)scale(0.11 -0.11)">
       <defs>
        <path id="ArialMT-32" d="M 3222 541 
L 3222 0 
L 194 0 
Q 188 203 259 391 
Q 375 700 629 1000 
Q 884 1300 1366 1694 
Q 2113 2306 2375 2664 
Q 2638 3022 2638 3341 
Q 2638 3675 2398 3904 
Q 2159 4134 1775 4134 
Q 1369 4134 1125 3890 
Q 881 3647 878 3216 
L 300 3275 
Q 359 3922 746 4261 
Q 1134 4600 1788 4600 
Q 2447 4600 2831 4234 
Q 3216 3869 3216 3328 
Q 3216 3053 3103 2787 
Q 2991 2522 2730 2228 
Q 2469 1934 1863 1422 
Q 1356 997 1212 845 
Q 1069 694 975 541 
L 3222 541 
z
" transform="scale(0.015625)"/>
       </defs>
       <use xlink:href="#ArialMT-32"/>
      </g>
     </g>
    </g>
    <g id="xtick_4">
     <g id="line2d_4">
      <path d="M 429.082227 504 
L 429.082227 69.12 
" clip-path="url(#p144581b31e)" style="fill: none; stroke: #ffffff; stroke-linecap: round"/>
     </g>
     <g id="text_4">
      <!-- 3 -->
      <g style="fill: #262626" transform="translate(426.023711 521.373594)scale(0.11 -0.11)">
       <defs>
        <path id="ArialMT-33" d="M 269 1209 
L 831 1284 
Q 928 806 1161 595 
Q 1394 384 1728 384 
Q 2125 384 2398 659 
Q 2672 934 2672 1341 
Q 2672 1728 2419 1979 
Q 2166 2231 1775 2231 
Q 1616 2231 1378 2169 
L 1441 2663 
Q 1497 2656 1531 2656 
Q 1891 2656 2178 2843 
Q 2466 3031 2466 3422 
Q 2466 3731 2256 3934 
Q 2047 4138 1716 4138 
Q 1388 4138 1169 3931 
Q 950 3725 888 3313 
L 325 3413 
Q 428 3978 793 4289 
Q 1159 4600 1703 4600 
Q 2078 4600 2393 4439 
Q 2709 4278 2876 4000 
Q 3044 3722 3044 3409 
Q 3044 3113 2884 2869 
Q 2725 2625 2413 2481 
Q 2819 2388 3044 2092 
Q 3269 1797 3269 1353 
Q 3269 753 2831 336 
Q 2394 -81 1725 -81 
Q 1122 -81 723 278 
Q 325 638 269 1209 
z
" transform="scale(0.015625)"/>
       </defs>
       <use xlink:href="#ArialMT-33"/>
      </g>
     </g>
    </g>
    <g id="xtick_5">
     <g id="line2d_5">
      <path d="M 525.964181 504 
L 525.964181 69.12 
" clip-path="url(#p144581b31e)" style="fill: none; stroke: #ffffff; stroke-linecap: round"/>
     </g>
     <g id="text_5">
      <!-- 4 -->
      <g style="fill: #262626" transform="translate(522.905666 521.373594)scale(0.11 -0.11)">
       <defs>
        <path id="ArialMT-34" d="M 2069 0 
L 2069 1097 
L 81 1097 
L 81 1613 
L 2172 4581 
L 2631 4581 
L 2631 1613 
L 3250 1613 
L 3250 1097 
L 2631 1097 
L 2631 0 
L 2069 0 
z
M 2069 1613 
L 2069 3678 
L 634 1613 
L 2069 1613 
z
" transform="scale(0.015625)"/>
       </defs>
       <use xlink:href="#ArialMT-34"/>
      </g>
     </g>
    </g>
    <g id="xtick_6">
     <g id="line2d_6">
      <path d="M 622.846136 504 
L 622.846136 69.12 
" clip-path="url(#p144581b31e)" style="fill: none; stroke: #ffffff; stroke-linecap: round"/>
     </g>
     <g id="text_6">
      <!-- 5 -->
      <g style="fill: #262626" transform="translate(619.78762 521.373594)scale(0.11 -0.11)">
       <defs>
        <path id="ArialMT-35" d="M 266 1200 
L 856 1250 
Q 922 819 1161 601 
Q 1400 384 1738 384 
Q 2144 384 2425 690 
Q 2706 997 2706 1503 
Q 2706 1984 2436 2262 
Q 2166 2541 1728 2541 
Q 1456 2541 1237 2417 
Q 1019 2294 894 2097 
L 366 2166 
L 809 4519 
L 3088 4519 
L 3088 3981 
L 1259 3981 
L 1013 2750 
Q 1425 3038 1878 3038 
Q 2478 3038 2890 2622 
Q 3303 2206 3303 1553 
Q 3303 931 2941 478 
Q 2500 -78 1738 -78 
Q 1113 -78 717 272 
Q 322 622 266 1200 
z
" transform="scale(0.015625)"/>
       </defs>
       <use xlink:href="#ArialMT-35"/>
      </g>
     </g>
    </g>
    <g id="xtick_7">
     <g id="line2d_7">
      <path d="M 719.72809 504 
L 719.72809 69.12 
" clip-path="url(#p144581b31e)" style="fill: none; stroke: #ffffff; stroke-linecap: round"/>
     </g>
     <g id="text_7">
      <!-- 6 -->
      <g style="fill: #262626" transform="translate(716.669575 521.373594)scale(0.11 -0.11)">
       <defs>
        <path id="ArialMT-36" d="M 3184 3459 
L 2625 3416 
Q 2550 3747 2413 3897 
Q 2184 4138 1850 4138 
Q 1581 4138 1378 3988 
Q 1113 3794 959 3422 
Q 806 3050 800 2363 
Q 1003 2672 1297 2822 
Q 1591 2972 1913 2972 
Q 2475 2972 2870 2558 
Q 3266 2144 3266 1488 
Q 3266 1056 3080 686 
Q 2894 316 2569 119 
Q 2244 -78 1831 -78 
Q 1128 -78 684 439 
Q 241 956 241 2144 
Q 241 3472 731 4075 
Q 1159 4600 1884 4600 
Q 2425 4600 2770 4297 
Q 3116 3994 3184 3459 
z
M 888 1484 
Q 888 1194 1011 928 
Q 1134 663 1356 523 
Q 1578 384 1822 384 
Q 2178 384 2434 671 
Q 2691 959 2691 1453 
Q 2691 1928 2437 2201 
Q 2184 2475 1800 2475 
Q 1419 2475 1153 2201 
Q 888 1928 888 1484 
z
" transform="scale(0.015625)"/>
       </defs>
       <use xlink:href="#ArialMT-36"/>
      </g>
     </g>
    </g>
   </g>
   <g id="matplotlib.axis_2">
    <g id="ytick_1">
     <g id="line2d_8">
      <path d="M 108 484.234595 
L 777.6 484.234595 
" clip-path="url(#p144581b31e)" style="fill: none; stroke: #ffffff; stroke-linecap: round"/>
     </g>
     <g id="text_8">
      <!-- −1.00 -->
      <g style="fill: #262626" transform="translate(70.668281 488.171391)scale(0.11 -0.11)">
       <defs>
        <path id="ArialMT-2212" d="M 3381 1997 
L 356 1997 
L 356 2522 
L 3381 2522 
L 3381 1997 
z
" transform="scale(0.015625)"/>
        <path id="ArialMT-2e" d="M 581 0 
L 581 641 
L 1222 641 
L 1222 0 
L 581 0 
z
" transform="scale(0.015625)"/>
       </defs>
       <use xlink:href="#ArialMT-2212"/>
       <use xlink:href="#ArialMT-31" x="58.398438"/>
       <use xlink:href="#ArialMT-2e" x="114.013672"/>
       <use xlink:href="#ArialMT-30" x="141.796875"/>
       <use xlink:href="#ArialMT-30" x="197.412109"/>
      </g>
     </g>
    </g>
    <g id="ytick_2">
     <g id="line2d_9">
      <path d="M 108 434.816071 
L 777.6 434.816071 
" clip-path="url(#p144581b31e)" style="fill: none; stroke: #ffffff; stroke-linecap: round"/>
     </g>
     <g id="text_9">
      <!-- −0.75 -->
      <g style="fill: #262626" transform="translate(70.668281 438.752867)scale(0.11 -0.11)">
       <defs>
        <path id="ArialMT-37" d="M 303 3981 
L 303 4522 
L 3269 4522 
L 3269 4084 
Q 2831 3619 2401 2847 
Q 1972 2075 1738 1259 
Q 1569 684 1522 0 
L 944 0 
Q 953 541 1156 1306 
Q 1359 2072 1739 2783 
Q 2119 3494 2547 3981 
L 303 3981 
z
" transform="scale(0.015625)"/>
       </defs>
       <use xlink:href="#ArialMT-2212"/>
       <use xlink:href="#ArialMT-30" x="58.398438"/>
       <use xlink:href="#ArialMT-2e" x="114.013672"/>
       <use xlink:href="#ArialMT-37" x="141.796875"/>
       <use xlink:href="#ArialMT-35" x="197.412109"/>
      </g>
     </g>
    </g>
    <g id="ytick_3">
     <g id="line2d_10">
      <path d="M 108 385.397547 
L 777.6 385.397547 
" clip-path="url(#p144581b31e)" style="fill: none; stroke: #ffffff; stroke-linecap: round"/>
     </g>
     <g id="text_10">
      <!-- −0.50 -->
      <g style="fill: #262626" transform="translate(70.668281 389.334343)scale(0.11 -0.11)">
       <use xlink:href="#ArialMT-2212"/>
       <use xlink:href="#ArialMT-30" x="58.398438"/>
       <use xlink:href="#ArialMT-2e" x="114.013672"/>
       <use xlink:href="#ArialMT-35" x="141.796875"/>
       <use xlink:href="#ArialMT-30" x="197.412109"/>
      </g>
     </g>
    </g>
    <g id="ytick_4">
     <g id="line2d_11">
      <path d="M 108 335.979022 
L 777.6 335.979022 
" clip-path="url(#p144581b31e)" style="fill: none; stroke: #ffffff; stroke-linecap: round"/>
     </g>
     <g id="text_11">
      <!-- −0.25 -->
      <g style="fill: #262626" transform="translate(70.668281 339.915819)scale(0.11 -0.11)">
       <use xlink:href="#ArialMT-2212"/>
       <use xlink:href="#ArialMT-30" x="58.398438"/>
       <use xlink:href="#ArialMT-2e" x="114.013672"/>
       <use xlink:href="#ArialMT-32" x="141.796875"/>
       <use xlink:href="#ArialMT-35" x="197.412109"/>
      </g>
     </g>
    </g>
    <g id="ytick_5">
     <g id="line2d_12">
      <path d="M 108 286.560498 
L 777.6 286.560498 
" clip-path="url(#p144581b31e)" style="fill: none; stroke: #ffffff; stroke-linecap: round"/>
     </g>
     <g id="text_12">
      <!-- 0.00 -->
      <g style="fill: #262626" transform="translate(77.092969 290.497295)scale(0.11 -0.11)">
       <use xlink:href="#ArialMT-30"/>
       <use xlink:href="#ArialMT-2e" x="55.615234"/>
       <use xlink:href="#ArialMT-30" x="83.398438"/>
       <use xlink:href="#ArialMT-30" x="139.013672"/>
      </g>
     </g>
    </g>
    <g id="ytick_6">
     <g id="line2d_13">
      <path d="M 108 237.141974 
L 777.6 237.141974 
" clip-path="url(#p144581b31e)" style="fill: none; stroke: #ffffff; stroke-linecap: round"/>
     </g>
     <g id="text_13">
      <!-- 0.25 -->
      <g style="fill: #262626" transform="translate(77.092969 241.078771)scale(0.11 -0.11)">
       <use xlink:href="#ArialMT-30"/>
       <use xlink:href="#ArialMT-2e" x="55.615234"/>
       <use xlink:href="#ArialMT-32" x="83.398438"/>
       <use xlink:href="#ArialMT-35" x="139.013672"/>
      </g>
     </g>
    </g>
    <g id="ytick_7">
     <g id="line2d_14">
      <path d="M 108 187.72345 
L 777.6 187.72345 
" clip-path="url(#p144581b31e)" style="fill: none; stroke: #ffffff; stroke-linecap: round"/>
     </g>
     <g id="text_14">
      <!-- 0.50 -->
      <g style="fill: #262626" transform="translate(77.092969 191.660247)scale(0.11 -0.11)">
       <use xlink:href="#ArialMT-30"/>
       <use xlink:href="#ArialMT-2e" x="55.615234"/>
       <use xlink:href="#ArialMT-35" x="83.398438"/>
       <use xlink:href="#ArialMT-30" x="139.013672"/>
      </g>
     </g>
    </g>
    <g id="ytick_8">
     <g id="line2d_15">
      <path d="M 108 138.304926 
L 777.6 138.304926 
" clip-path="url(#p144581b31e)" style="fill: none; stroke: #ffffff; stroke-linecap: round"/>
     </g>
     <g id="text_15">
      <!-- 0.75 -->
      <g style="fill: #262626" transform="translate(77.092969 142.241723)scale(0.11 -0.11)">
       <use xlink:href="#ArialMT-30"/>
       <use xlink:href="#ArialMT-2e" x="55.615234"/>
       <use xlink:href="#ArialMT-37" x="83.398438"/>
       <use xlink:href="#ArialMT-35" x="139.013672"/>
      </g>
     </g>
    </g>
    <g id="ytick_9">
     <g id="line2d_16">
      <path d="M 108 88.886402 
L 777.6 88.886402 
" clip-path="url(#p144581b31e)" style="fill: none; stroke: #ffffff; stroke-linecap: round"/>
     </g>
     <g id="text_16">
      <!-- 1.00 -->
      <g style="fill: #262626" transform="translate(77.092969 92.823199)scale(0.11 -0.11)">
       <use xlink:href="#ArialMT-31"/>
       <use xlink:href="#ArialMT-2e" x="55.615234"/>
       <use xlink:href="#ArialMT-30" x="83.398438"/>
       <use xlink:href="#ArialMT-30" x="139.013672"/>
      </g>
     </g>
    </g>
   </g>
   <g id="line2d_17">
    <path d="M 138.436364 286.560498 
L 141.487628 286.364423 
L 144.538893 285.776198 
L 147.590157 284.795841 
L 150.641422 283.423419 
L 153.692686 281.659109 
L 156.743951 279.503275 
L 159.795215 276.956573 
L 162.84648 274.020083 
L 165.897744 270.695451 
L 168.949009 266.985069 
L 172.000273 262.892263 
L 175.051538 258.421513 
L 178.102802 253.578689 
L 181.154067 248.371307 
L 184.205332 242.808804 
L 187.256596 236.902828 
L 191.833493 227.431599 
L 196.41039 217.280177 
L 200.987286 206.525453 
L 205.564183 195.263589 
L 211.666712 179.66592 
L 226.923035 140.131631 
L 231.499932 128.964583 
L 234.551196 121.928776 
L 237.602461 115.319186 
L 240.653725 109.225863 
L 243.70499 103.742783 
L 246.756254 98.967121 
L 248.281887 96.875597 
L 249.807519 94.998359 
L 251.333151 93.348028 
L 252.858783 91.93723 
L 254.384416 90.778548 
L 255.910048 89.884478 
L 257.43568 89.26738 
L 258.961312 88.939428 
L 260.486945 88.912552 
L 262.012577 89.198383 
L 263.538209 89.808195 
L 265.063841 90.752836 
L 266.589474 92.042669 
L 268.115106 93.687503 
L 269.640738 95.696519 
L 271.16637 98.078207 
L 272.692003 100.840283 
L 274.217635 103.98962 
L 275.743267 107.532172 
L 277.2689 111.472893 
L 278.794532 115.815662 
L 280.320164 120.563205 
L 281.845796 125.717017 
L 284.897061 137.242811 
L 287.948325 150.377486 
L 290.99959 165.081018 
L 294.050854 181.286758 
L 297.102119 198.899524 
L 300.153383 217.794033 
L 303.204648 237.81375 
L 307.781545 269.532211 
L 313.884074 313.737825 
L 321.512235 368.838734 
L 324.5635 389.767375 
L 327.614764 409.518381 
L 330.666029 427.716198 
L 333.717293 443.984242 
L 335.242925 451.278639 
L 336.768558 457.953114 
L 338.29419 463.964099 
L 339.819822 469.269644 
L 341.345455 473.829734 
L 342.871087 477.606616 
L 344.396719 480.565122 
L 345.922351 482.673005 
L 347.447984 483.901267 
L 348.973616 484.224487 
L 350.499248 483.621147 
L 352.02488 482.073946 
L 353.550513 479.570106 
L 355.076145 476.101664 
L 356.601777 471.665749 
L 358.127409 466.264836 
L 359.653042 459.906982 
L 361.178674 452.606031 
L 362.704306 444.38179 
L 364.229938 435.260177 
L 365.755571 425.273331 
L 368.806835 402.863945 
L 371.8581 377.536656 
L 374.909364 349.773789 
L 377.960629 320.152387 
L 384.063158 258.06378 
L 388.640055 212.057872 
L 391.691319 183.220417 
L 394.742584 156.848735 
L 396.268216 144.850462 
L 397.793848 133.779052 
L 399.319481 123.731087 
L 400.845113 114.798195 
L 402.370745 107.066099 
L 403.896377 100.613678 
L 405.42201 95.512028 
L 406.947642 91.823568 
L 408.473274 89.601156 
L 409.998906 88.887273 
L 411.524539 89.713241 
L 413.050171 92.098523 
L 414.575803 96.05009 
L 416.101435 101.561883 
L 417.627068 108.614363 
L 419.1527 117.174178 
L 420.678332 127.193946 
L 422.203964 138.612158 
L 423.729597 151.353222 
L 425.255229 165.327649 
L 428.306494 196.551265 
L 431.357758 231.305469 
L 435.934655 287.470328 
L 442.037184 362.703137 
L 445.088448 397.161953 
L 446.614081 412.955924 
L 448.139713 427.557355 
L 449.665345 440.799161 
L 451.190977 452.524456 
L 452.71661 462.588626 
L 454.242242 470.861354 
L 455.767874 477.228559 
L 457.293506 481.594234 
L 458.819139 483.882146 
L 460.344771 484.037368 
L 461.870403 482.027633 
L 463.396036 477.844454 
L 464.921668 471.504015 
L 466.4473 463.047788 
L 467.972932 452.542862 
L 469.498565 440.081975 
L 471.024197 425.78321 
L 472.549829 409.789369 
L 474.075461 392.266997 
L 477.126726 353.413326 
L 480.17799 310.97083 
L 487.806152 202.744896 
L 490.857416 164.427221 
L 492.383049 147.424962 
L 493.908681 132.193553 
L 495.434313 118.960391 
L 496.959945 107.9304 
L 498.485578 99.282462 
L 500.01121 93.166106 
L 501.536842 89.698488 
L 503.062474 88.961743 
L 504.588107 91.000759 
L 506.113739 95.821418 
L 507.639371 103.389372 
L 509.165003 113.629379 
L 510.690636 126.425239 
L 512.216268 141.62037 
L 513.7419 159.019025 
L 515.267532 178.388175 
L 518.318797 221.935278 
L 521.370062 269.76409 
L 527.472591 366.59262 
L 530.523855 409.431919 
L 532.049487 428.152949 
L 533.57512 444.626695 
L 535.100752 458.554288 
L 536.626384 469.673876 
L 538.152016 477.766118 
L 539.677649 482.659125 
L 541.203281 484.232727 
L 542.728913 482.421969 
L 544.254545 477.219727 
L 545.780178 468.678374 
L 547.30581 456.910414 
L 548.831442 442.088042 
L 550.357075 424.441575 
L 551.882707 404.256763 
L 553.408339 381.87096 
L 556.459604 332.073237 
L 564.087765 199.985982 
L 565.613397 176.261468 
L 567.139029 154.580012 
L 568.664662 135.385503 
L 570.190294 119.080737 
L 571.715926 106.018314 
L 573.241558 96.492273 
L 574.767191 90.730667 
L 576.292823 88.889268 
L 577.818455 91.046579 
L 579.344087 97.200307 
L 580.86972 107.265439 
L 582.395352 121.074009 
L 583.920984 138.376635 
L 585.446617 158.845859 
L 586.972249 182.081282 
L 590.023513 234.927388 
L 597.651675 377.130929 
L 599.177307 402.295718 
L 600.702939 424.947564 
L 602.228571 444.549361 
L 603.754204 460.624818 
L 605.279836 472.770906 
L 606.805468 480.66894 
L 608.3311 484.094009 
L 609.856733 482.922426 
L 611.382365 477.136993 
L 612.907997 466.829836 
L 614.43363 452.202668 
L 615.959262 433.564394 
L 617.484894 411.326001 
L 619.010526 385.992778 
L 622.061791 328.470014 
L 628.16432 206.100069 
L 629.689952 178.452582 
L 631.215584 153.475342 
L 632.741217 131.834502 
L 634.266849 114.120078 
L 635.792481 100.828827 
L 637.318113 92.349118 
L 638.843746 88.94829 
L 640.369378 90.7629 
L 641.89501 97.792256 
L 643.420643 109.895491 
L 644.946275 126.792405 
L 646.471907 148.068156 
L 647.997539 173.18182 
L 649.523172 201.47868 
L 652.574436 264.532275 
L 657.151333 362.074883 
L 658.676965 391.704327 
L 660.202597 418.415434 
L 661.72823 441.414144 
L 663.253862 460.002462 
L 664.779494 473.600893 
L 666.305126 481.767943 
L 667.830759 484.216024 
L 669.356391 480.823163 
L 670.882023 471.640011 
L 672.407656 456.891815 
L 673.933288 436.975105 
L 675.45892 412.449048 
L 676.984552 384.021567 
L 680.035817 318.920134 
L 684.612714 215.819235 
L 686.138346 184.288229 
L 687.663978 155.908264 
L 689.18961 131.609803 
L 690.715243 112.205215 
L 692.240875 98.360156 
L 693.766507 90.569031 
L 695.292139 89.135487 
L 696.817772 94.158723 
L 698.343404 105.526264 
L 699.869036 122.91364 
L 701.394668 145.791179 
L 702.920301 173.437902 
L 704.445933 204.962262 
L 707.497198 275.392903 
L 710.548462 347.699937 
L 712.074094 381.448883 
L 713.599727 411.992172 
L 715.125359 438.237582 
L 716.650991 459.229557 
L 718.176623 474.185633 
L 719.702256 482.527542 
L 721.227888 483.905718 
L 722.75352 478.216101 
L 724.279152 465.608429 
L 725.804785 446.485447 
L 727.330417 421.492809 
L 728.856049 391.499773 
L 730.381681 357.571151 
L 733.432946 282.921372 
L 736.484211 208.446322 
L 738.009843 174.796538 
L 739.535475 145.299953 
L 741.061107 121.112839 
L 742.58674 103.202376 
L 744.112372 92.305882 
L 745.638004 88.898082 
L 747.163636 93.167914 
L 747.163636 93.167914 
" clip-path="url(#p144581b31e)" style="fill: none; stroke: #4c72b0; stroke-width: 1.5; stroke-linecap: round"/>
   </g>
   <g id="patch_3">
    <path d="M 108 504 
L 108 69.12 
" style="fill: none; stroke: #ffffff; stroke-width: 1.25; stroke-linejoin: miter; stroke-linecap: square"/>
   </g>
   <g id="patch_4">
    <path d="M 777.6 504 
L 777.6 69.12 
" style="fill: none; stroke: #ffffff; stroke-width: 1.25; stroke-linejoin: miter; stroke-linecap: square"/>
   </g>
   <g id="patch_5">
    <path d="M 108 504 
L 777.6 504 
" style="fill: none; stroke: #ffffff; stroke-width: 1.25; stroke-linejoin: miter; stroke-linecap: square"/>
   </g>
   <g id="patch_6">
    <path d="M 108 69.12 
L 777.6 69.12 
" style="fill: none; stroke: #ffffff; stroke-width: 1.25; stroke-linejoin: miter; stroke-linecap: square"/>
   </g>
  </g>
 </g>
 <defs>
  <clipPath id="p144581b31e">
   <rect x="108" y="69.12" width="669.6" height="434.88"/>
  </clipPath>
 </defs>
</svg>
